<?xml version="1.0" encoding="UTF-8" standalone="no"?>
<!-- Created with Inkscape (http://www.inkscape.org/) -->

<svg
   xmlns:dc="http://purl.org/dc/elements/1.1/"
   xmlns:cc="http://creativecommons.org/ns#"
   xmlns:rdf="http://www.w3.org/1999/02/22-rdf-syntax-ns#"
   xmlns:svg="http://www.w3.org/2000/svg"
   xmlns="http://www.w3.org/2000/svg"
   xmlns:xlink="http://www.w3.org/1999/xlink"
   xmlns:sodipodi="http://sodipodi.sourceforge.net/DTD/sodipodi-0.dtd"
   xmlns:inkscape="http://www.inkscape.org/namespaces/inkscape"
   width="105.40733mm"
   height="38.314781mm"
   viewBox="0 0 373.49052 135.76104"
   id="svg2"
   version="1.1"
   inkscape:version="0.91 r13725"
   sodipodi:docname="logo.svg">
  <defs
     id="defs4">
    <linearGradient
       inkscape:collect="always"
       id="linearGradient5548">
      <stop
         style="stop-color:#ffffff;stop-opacity:1;"
         offset="0"
         id="stop5550" />
      <stop
         style="stop-color:#004a8a;stop-opacity:0.54605263"
         offset="1"
         id="stop5552" />
    </linearGradient>
    <filter
       style="color-interpolation-filters:sRGB"
       inkscape:label="Drop Shadow"
       id="filter5524">
      <feFlood
         flood-opacity="0.498039"
         flood-color="rgb(0,0,0)"
         result="flood"
         id="feFlood5526" />
      <feComposite
         in="flood"
         in2="SourceGraphic"
         operator="in"
         result="composite1"
         id="feComposite5528" />
      <feGaussianBlur
         in="composite1"
         stdDeviation="2.6"
         result="blur"
         id="feGaussianBlur5530" />
      <feOffset
         dx="0"
         dy="6"
         result="offset"
         id="feOffset5532" />
      <feComposite
         in="SourceGraphic"
         in2="offset"
         operator="over"
         result="composite2"
         id="feComposite5534" />
    </filter>
    <filter
       style="color-interpolation-filters:sRGB"
       inkscape:label="Drop Shadow"
       id="filter5536">
      <feFlood
         flood-opacity="0.498039"
         flood-color="rgb(0,0,0)"
         result="flood"
         id="feFlood5538" />
      <feComposite
         in="flood"
         in2="SourceGraphic"
         operator="in"
         result="composite1"
         id="feComposite5540" />
      <feGaussianBlur
         in="composite1"
         stdDeviation="2.6"
         result="blur"
         id="feGaussianBlur5542" />
      <feOffset
         dx="0"
         dy="6"
         result="offset"
         id="feOffset5544" />
      <feComposite
         in="SourceGraphic"
         in2="offset"
         operator="over"
         result="composite2"
         id="feComposite5546" />
    </filter>
    <linearGradient
       inkscape:collect="always"
       xlink:href="#linearGradient5548"
       id="linearGradient5554"
       x1="201.57704"
       y1="485.2114"
       x2="201.57704"
       y2="591.88104"
       gradientUnits="userSpaceOnUse" />
    <linearGradient
       inkscape:collect="always"
       xlink:href="#linearGradient5548"
       id="linearGradient5562"
       x1="463.30746"
       y1="534.4353"
       x2="438.40671"
       y2="590.651"
       gradientUnits="userSpaceOnUse" />
  </defs>
  <sodipodi:namedview
     id="base"
     pagecolor="#ffffff"
     bordercolor="#666666"
     borderopacity="1.0"
     inkscape:pageopacity="0.0"
     inkscape:pageshadow="2"
     inkscape:zoom="0.99616309"
     inkscape:cx="209.72296"
     inkscape:cy="-37.881391"
     inkscape:document-units="px"
     inkscape:current-layer="layer1"
     showgrid="false"
     inkscape:window-width="1308"
     inkscape:window-height="720"
     inkscape:window-x="0"
     inkscape:window-y="23"
     inkscape:window-maximized="0"
     fit-margin-top="0"
     fit-margin-left="0"
     fit-margin-right="0"
     fit-margin-bottom="0" />
  <metadata
     id="metadata7">
    <rdf:RDF>
      <cc:Work
         rdf:about="">
        <dc:format>image/svg+xml</dc:format>
        <dc:type
           rdf:resource="http://purl.org/dc/dcmitype/StillImage" />
        <dc:title></dc:title>
      </cc:Work>
    </rdf:RDF>
  </metadata>
  <g
     inkscape:label="background"
     inkscape:groupmode="layer"
     id="layer1"
     transform="translate(-138.51809,-470.56248)" />
  <g
     inkscape:groupmode="layer"
     id="layer4"
     inkscape:label="shadows"
     style="opacity:0"
     transform="translate(-138.51809,-470.56248)">
    <rect
       style="color:#000000;display:inline;overflow:visible;visibility:visible;opacity:0.45199998;fill:#3475ad;fill-opacity:1;stroke:none;stroke-width:2;stroke-miterlimit:4;stroke-dasharray:none;stroke-opacity:1;marker:none;filter:url(#filter5524);enable-background:accumulate"
       id="rect4227-5"
       width="105.93479"
       height="106.20782"
       x="149.11157"
       y="488.57681"
       ry="52.967396" />
    <path
       inkscape:connector-curvature="0"
       style="opacity:0.45199998;fill:#3475ad;fill-opacity:1;fill-rule:evenodd;stroke:none;stroke-width:2;stroke-linecap:butt;stroke-linejoin:miter;stroke-miterlimit:4;stroke-dasharray:none;stroke-opacity:1;filter:url(#filter5536)"
       d="m 440.63541,482.88202 a 6.3314995,11.807392 72.067307 0 0 -7.83529,4.85329 l -0.0242,0.008 0.005,0.0142 a 6.3314995,11.807392 72.067307 0 0 -1.42993,4.78389 6.3314995,11.807392 72.067307 0 0 3.95945,3.0324 l 7.72942,23.88416 c 0,0 -11.00977,53.42076 -7.45707,64.3987 3.55269,10.97793 16.89912,14.74398 40.07476,7.24384 23.17564,-7.50013 31.78507,-18.37156 28.23238,-29.3495 -3.5527,-10.97794 -43.77328,-47.81946 -43.77328,-47.81946 l -7.72727,-23.87748 a 6.3314995,11.807392 72.067307 0 0 1.42909,-4.78362 6.3314995,11.807392 72.067307 0 0 -3.95834,-3.03184 l -0.007,-0.0217 -0.0359,0.0116 a 6.3314995,11.807392 72.067307 0 0 -9.18146,0.6537 z"
       id="path4136-8-4" />
  </g>
  <g
     inkscape:groupmode="layer"
     id="layer3"
     inkscape:label="cbmm"
     transform="translate(-138.51809,-470.56248)">
    <rect
       style="color:#000000;display:inline;overflow:visible;visibility:visible;fill:#3475ad;fill-opacity:1;stroke:url(#linearGradient5554);stroke-width:1;stroke-miterlimit:4;stroke-dasharray:none;stroke-opacity:1;marker:none;enable-background:accumulate"
       id="rect4227"
       width="105.93479"
       height="106.20782"
       x="149.11157"
       y="486.57681"
       ry="52.967396" />
    <path
       inkscape:connector-curvature="0"
       style="color:#000000;font-style:normal;font-variant:normal;font-weight:normal;font-stretch:normal;font-size:medium;line-height:normal;font-family:Sans;-inkscape-font-specification:Sans;text-indent:0;text-align:start;text-decoration:none;text-decoration-line:none;letter-spacing:normal;word-spacing:normal;text-transform:none;direction:ltr;block-progression:tb;writing-mode:lr-tb;baseline-shift:baseline;text-anchor:start;display:inline;overflow:visible;visibility:visible;opacity:1;fill:#ffffff;fill-opacity:1;fill-rule:nonzero;stroke:none;stroke-width:2;marker:none;enable-background:accumulate"
       d="m 213.89899,505.12698 c -1.39499,0 -2.60906,0.82339 -3.16569,2.01185 l -27.66286,0 -0.59172,0 -0.44379,0.4142 -9.55626,9.55626 -0.4142,0.44379 0,0.6213 -0.0887,2.13019 c -1.13528,0.5709 -1.92309,1.7272 -1.92309,3.07694 0,1.91222 1.57893,3.49114 3.49115,3.49114 1.91221,0 3.49114,-1.57892 3.49114,-3.49114 0,-1.37315 -0.84473,-2.54695 -2.01185,-3.10652 l 0,-1.50889 8.66868,-8.66868 7.04146,0 0,1.77516 -5.56216,5.59174 -0.26627,0.23669 0,0.38462 0,3.81658 c -0.62,0.31231 -1.0651,0.949 -1.0651,1.6864 0,1.04536 0.87773,1.92309 1.92309,1.92309 1.04534,0 1.8935,-0.87773 1.8935,-1.92309 0,-0.71409 -0.38783,-1.33462 -0.97634,-1.65681 l 0,-3.49114 5.56216,-5.56216 0.26627,-0.26627 0,-0.35503 0,-2.15978 9.73378,0 0,3.28404 -5.8876,0 -0.35504,0 -0.26627,0.26628 -4.82251,4.8225 -0.26627,0.26628 0,0.35503 0,6.47932 -5.62133,5.62133 -5.08878,0 c -0.32329,-0.59607 -0.93355,-1.00592 -1.65681,-1.00592 -1.04535,0 -1.92309,0.84815 -1.92309,1.8935 0,1.04535 0.87774,1.8935 1.92309,1.8935 0.72326,0 1.33352,-0.40508 1.65681,-1.00593 l 4.55623,0 0,4.02369 c -0.58851,0.32219 -0.97633,0.94272 -0.97633,1.65681 0,1.04536 0.84815,1.92309 1.8935,1.92309 1.04535,0 1.92308,-0.87773 1.92308,-1.92309 0,-0.7374 -0.44509,-1.37409 -1.06509,-1.68639 l 0,-4.49707 5.79884,-5.79884 9.31958,0 c 0.32697,0.58851 0.9723,1.00592 1.68639,1.00592 1.04536,0 1.8935,-0.87773 1.8935,-1.92309 0,-1.04534 -0.84814,-1.8935 -1.8935,-1.8935 -0.73404,0 -1.39739,0.42482 -1.71598,1.03551 l -8.93495,0 0,-5.44381 4.28996,-4.28996 6.42015,0 0.88757,0 0,-0.88758 0,-4.17162 6.7456,0 c 0.56817,1.16712 1.76296,1.98226 3.13611,1.98226 1.91222,0 3.49114,-1.57892 3.49114,-3.49114 0,-1.91222 -1.57892,-3.46156 -3.49114,-3.46156 z m 0,1.8935 c 0.88889,0 1.59764,0.67916 1.59764,1.56806 0,0.88889 -0.70875,1.59764 -1.59764,1.59764 -0.88889,0 -1.59764,-0.70875 -1.59764,-1.59764 0,-0.8889 0.70875,-1.56806 1.59764,-1.56806 z m 7.7811,1.86392 c -1.91221,0 -3.49114,1.54934 -3.49114,3.46155 0,1.91222 1.57893,3.49114 3.49114,3.49114 0.41259,0 0.78482,-0.0726 1.15385,-0.2071 l 2.66274,2.66274 -17.10067,0 c -0.31705,-0.61525 -0.97858,-1.03551 -1.71599,-1.03551 -1.04534,0 -1.8935,0.84816 -1.8935,1.8935 0,1.04535 0.84816,1.8935 1.8935,1.8935 0.71411,0 1.35942,-0.38783 1.6864,-0.97634 l 1.12427,0 0,2.39647 c -0.60085,0.31851 -1.03551,0.93356 -1.03551,1.65681 0,1.04535 0.87773,1.8935 1.92308,1.8935 1.04535,0 1.8935,-0.84815 1.8935,-1.8935 0,-0.72325 -0.40507,-1.3383 -1.00592,-1.65681 l 0,-2.39647 16.006,0 15.20717,15.20718 0,7.69234 -9.0533,0 0,-2.7219 c 0.58851,-0.32698 1.00592,-0.9723 1.00592,-1.6864 0,-1.04535 -0.87774,-1.8935 -1.92308,-1.8935 -1.04536,0 -1.8935,0.84815 -1.8935,1.8935 0,0.7374 0.41551,1.39893 1.03551,1.71598 l 0,3.5799 0,0.88758 0.88757,0 9.94088,0 0,4.23079 -6.53849,6.53849 -6.7456,0 0,-2.60356 c 0.60085,-0.32329 1.03551,-0.93355 1.03551,-1.65681 0,-1.04535 -0.87774,-1.8935 -1.92309,-1.8935 -1.04535,0 -1.8935,0.84815 -1.8935,1.8935 0,0.7141 0.41742,1.32983 1.00593,1.65681 l 0,2.60356 -15.00008,0 -0.6213,0 -0.4142,0.44379 -5.02961,5.02961 c -0.44888,-0.20891 -0.92487,-0.32545 -1.44972,-0.32545 -1.37314,0 -2.56793,0.82374 -3.1361,1.98226 l -12.75155,0 -2.929,-2.92901 0,-13.01781 11.50893,-11.53852 11.44976,0 0.59172,0 0.44378,-0.44379 4.46748,-4.46747 c 0.35392,0.12248 0.73142,0.23669 1.12427,0.23669 1.91221,0 3.49114,-1.57893 3.49114,-3.49115 0,-1.91221 -1.57893,-3.46155 -3.49114,-3.46155 -1.91222,0 -3.49114,1.54934 -3.49114,3.46155 0,0.42559 0.094,0.80461 0.23668,1.18344 l -3.9941,4.02369 -11.42017,0 -0.62131,0 -0.44379,0.44379 -12.36692,12.36692 -0.44379,0.44379 0,0.59172 0,7.9882 -1.71598,0 c -0.56173,-1.17552 -1.75054,-1.98225 -3.13611,-1.98225 -1.38557,0 -2.60397,0.80673 -3.1657,1.98225 l -3.72783,0 0,-4.79292 c 0.60085,-0.32329 1.00593,-0.96314 1.00593,-1.6864 0,-1.04534 -0.84815,-1.8935 -1.8935,-1.8935 -1.04535,0 -1.92309,0.84816 -1.92309,1.8935 0,0.72326 0.43466,1.36311 1.03551,1.6864 l 0,4.79292 -0.88758,0 -6.39056,-6.39056 0,-4.58582 13.96456,0 c 0.33215,0.56956 0.92728,0.97634 1.62723,0.97634 1.04534,0 1.92308,-0.87774 1.92308,-1.92309 0,-1.04534 -0.87774,-1.8935 -1.92308,-1.8935 -0.74656,0 -1.37375,0.43737 -1.6864,1.06509 l -6.71601,0 0,-4.31954 3.10652,-3.10653 c 0.19581,0.0687 0.40353,0.11835 0.62131,0.11835 1.04534,0 1.8935,-0.87774 1.8935,-1.92309 0,-1.04534 -0.84816,-1.8935 -1.8935,-1.8935 -1.04535,0 -1.92309,0.84816 -1.92309,1.8935 0,0.17313 0.0149,0.34291 0.0592,0.50296 l -3.37279,3.40238 -0.26628,0.26628 0,0.35503 0,4.70416 -5.41422,0 0,-6.27222 3.43197,-3.43196 c 0.36903,0.13449 0.74126,0.2071 1.15385,0.2071 1.91221,0 3.49114,-1.57893 3.49114,-3.49114 0,-1.91222 -1.57893,-3.46156 -3.49114,-3.46156 -1.91222,0 -3.49114,1.54934 -3.49114,3.46156 0,0.41258 0.10219,0.8144 0.23668,1.18343 l -3.84617,3.87576 -0.44379,0.4142 0,0.62131 0,13.87581 0,0.59171 0.44379,0.44379 7.24856,7.27814 0.44379,0.41421 0.6213,0 6.98228,0 c 0.56076,1.18654 1.77833,2.01184 3.1657,2.01184 1.38737,0 2.57535,-0.8253 3.13611,-2.01184 l 1.71598,0 0,3.34321 0,0.6213 0.44379,0.41421 3.787,3.81658 0.44379,0.41421 0.59172,0 13.34326,0 c 0.56076,1.18654 1.77833,2.01184 3.16569,2.01184 1.91222,0 3.49115,-1.57892 3.49115,-3.49114 0,-0.3045 -0.0729,-0.57668 -0.14793,-0.85799 l 4.79292,-4.79292 23.52082,0 0.59172,0 0.44379,-0.41421 7.39648,-7.39648 0.44379,-0.44379 0,-0.62131 0,-14.9409 0,-0.6213 -0.44379,-0.44379 -20.05926,-20.02968 c 0.14068,-0.37649 0.23668,-0.79058 0.23668,-1.21303 0,-1.91221 -1.57892,-3.46155 -3.49114,-3.46155 z m 0,1.8935 c 0.8889,0 1.59764,0.67916 1.59764,1.56805 0,0.8889 -0.70874,1.59764 -1.59764,1.59764 -0.88889,0 -1.59764,-0.70874 -1.59764,-1.59764 0,-0.88889 0.70875,-1.56805 1.59764,-1.56805 z m -15.00007,7.51483 c 0.48594,0 0.88758,0.37206 0.88758,0.85799 0,0.48593 -0.40164,0.85799 -0.88758,0.85799 -0.48593,0 -0.85799,-0.37206 -0.85799,-0.85799 0,-0.48593 0.37206,-0.85799 0.85799,-0.85799 z m -33.13625,3.52072 c 0.88889,0 1.59764,0.67917 1.59764,1.56806 0,0.88889 -0.70875,1.59764 -1.59764,1.59764 -0.8889,0 -1.59764,-0.70875 -1.59764,-1.59764 0,-0.88889 0.70874,-1.56806 1.59764,-1.56806 z m 12.21899,0.91717 c 0.48593,0 0.85799,0.37206 0.85799,0.85799 0,0.48593 -0.37206,0.88758 -0.85799,0.88758 -0.48593,0 -0.88758,-0.40165 -0.88758,-0.88758 0,-0.48593 0.40165,-0.85799 0.88758,-0.85799 z m 24.6155,0.53255 c 0.48593,0 0.858,0.37206 0.858,0.85799 0,0.48593 -0.37207,0.85799 -0.858,0.85799 -0.48593,0 -0.88757,-0.37206 -0.88757,-0.85799 0,-0.48593 0.40164,-0.85799 0.88757,-0.85799 z m -7.30772,1.62722 c 0.48593,0 0.85799,0.37207 0.85799,0.85799 0,0.48593 -0.37206,0.88758 -0.85799,0.88758 -0.48593,0 -0.88758,-0.40165 -0.88758,-0.88758 0,-0.48592 0.40165,-0.85799 0.88758,-0.85799 z m 12.60361,0.53255 c 0.88889,0 1.59764,0.67916 1.59764,1.56805 0,0.8889 -0.70875,1.59765 -1.59764,1.59765 -0.8889,0 -1.59764,-0.70875 -1.59764,-1.59765 0,-0.88889 0.70874,-1.56805 1.59764,-1.56805 z m -48.75763,1.30178 c 0.88889,0 1.59764,0.67916 1.59764,1.56806 0,0.88889 -0.70875,1.59764 -1.59764,1.59764 -0.8889,0 -1.59764,-0.70875 -1.59764,-1.59764 0,-0.8889 0.70874,-1.56806 1.59764,-1.56806 z m 61.36124,1.42013 c -1.04536,0 -1.8935,0.84815 -1.8935,1.8935 0,0.7374 0.41551,1.39893 1.03551,1.71598 l 0,1.24261 -7.21897,0 -0.38462,0 -0.23669,0.26627 -8.1953,8.19531 -16.03558,0 -0.38462,0 -0.23669,0.26627 -6.0947,6.06512 -0.26628,0.26627 0,0.35504 0,6.83435 c -0.60084,0.31851 -1.00592,0.93356 -1.00592,1.65681 0,1.04535 0.84815,1.92309 1.8935,1.92309 1.04535,0 1.92309,-0.87774 1.92309,-1.92309 0,-0.72325 -0.43466,-1.3383 -1.03551,-1.65681 l 0,-6.44974 5.56216,-5.56215 16.03558,0 0.35503,0 0.26627,-0.26628 8.19531,-8.1953 7.75151,0 0.88758,0 0,-0.88758 0,-2.15978 c 0.58851,-0.32697 1.00592,-0.97229 1.00592,-1.68639 0,-1.04535 -0.87774,-1.8935 -1.92308,-1.8935 z m 0,1.0355 c 0.48593,0 0.88758,0.37207 0.88758,0.858 0,0.48593 -0.40165,0.88757 -0.88758,0.88757 -0.48593,0 -0.85799,-0.40164 -0.85799,-0.88757 0,-0.48593 0.37206,-0.858 0.85799,-0.858 z m -55.02985,2.01185 c 0.48593,0 0.85799,0.37206 0.85799,0.85799 0,0.48593 -0.37206,0.88758 -0.85799,0.88758 -0.48593,0 -0.88758,-0.40165 -0.88758,-0.88758 0,-0.48593 0.40165,-0.85799 0.88758,-0.85799 z m 5.02961,0.0295 c 0.48593,0 0.85799,0.37206 0.85799,0.85799 0,0.48593 -0.37206,0.85799 -0.85799,0.85799 -0.48593,0 -0.88758,-0.37206 -0.88758,-0.85799 0,-0.48593 0.40165,-0.85799 0.88758,-0.85799 z m 45.53276,6.39056 c -1.04535,0 -1.8935,0.84816 -1.8935,1.8935 0,0.2058 0.0271,0.40524 0.0887,0.59172 l -5.73967,5.73967 -18.04743,0 -0.88757,0 0,0.88758 0,5.53257 -3.25446,0 c -0.32328,-0.59606 -0.93355,-1.00592 -1.65681,-1.00592 -1.04534,0 -1.8935,0.84815 -1.8935,1.8935 0,1.04535 0.84816,1.8935 1.8935,1.8935 0.72326,0 1.33353,-0.40508 1.65681,-1.00592 l 3.25446,0 0,3.96451 c -0.62849,0.30935 -1.0651,0.94275 -1.0651,1.6864 0,1.04536 0.84815,1.8935 1.8935,1.8935 1.04535,0 1.92309,-0.84814 1.92309,-1.8935 0,-0.69995 -0.40678,-1.29987 -0.97634,-1.62723 l 0,-10.44383 7.51483,0 0,6.42015 c -0.60084,0.31851 -1.00592,0.93356 -1.00592,1.65681 0,1.04535 0.84815,1.92309 1.8935,1.92309 1.04534,0 1.92309,-0.87774 1.92309,-1.92309 0,-0.72325 -0.43467,-1.3383 -1.03551,-1.65681 l 0,-6.42015 14.91131,0 c 0.33423,0.56121 0.93353,0.94675 1.62723,0.94675 1.04534,0 1.92309,-0.84815 1.92309,-1.8935 0,-1.04535 -0.87775,-1.8935 -1.92309,-1.8935 -0.74656,0 -1.37374,0.43737 -1.6864,1.06509 l -4.43789,0 4.49706,-4.49706 c 0.1662,0.048 0.32237,0.0887 0.50296,0.0887 1.04535,0 1.92309,-0.87773 1.92309,-1.92309 0,-1.04534 -0.87774,-1.8935 -1.92309,-1.8935 z m 8.69827,0.0888 c 0.48593,0 0.88758,0.37207 0.88758,0.858 0,0.48593 -0.40165,0.88758 -0.88758,0.88758 -0.48593,0 -0.85799,-0.40165 -0.85799,-0.88758 0,-0.48593 0.37206,-0.858 0.85799,-0.858 z m -47.10082,0.0887 c 0.48594,0 0.88758,0.37206 0.88758,0.85799 0,0.48593 -0.40164,0.88758 -0.88758,0.88758 -0.48593,0 -0.85799,-0.40165 -0.85799,-0.88758 0,-0.48593 0.37206,-0.85799 0.85799,-0.85799 z m 38.40255,0.85803 c 0.48593,0 0.88758,0.37207 0.88758,0.858 0,0.48593 -0.40165,0.88758 -0.88758,0.88758 -0.48593,0 -0.85799,-0.40165 -0.85799,-0.88758 0,-0.48593 0.37206,-0.858 0.85799,-0.858 z m -45.88779,2.60357 c 0.48593,0 0.88758,0.37206 0.88758,0.85799 0,0.48593 -0.40165,0.88758 -0.88758,0.88758 -0.48593,0 -0.858,-0.40165 -0.858,-0.88758 0,-0.48593 0.37207,-0.85799 0.858,-0.85799 z m 47.01206,4.55623 c 0.48593,0 0.88757,0.37207 0.88757,0.85799 0,0.48593 -0.40164,0.858 -0.88757,0.858 -0.48593,0 -0.858,-0.37207 -0.858,-0.858 0,-0.48592 0.37207,-0.85799 0.858,-0.85799 z m -54.43813,0.88758 c 0.48592,0 0.85799,0.37206 0.85799,0.85799 0,0.48593 -0.37207,0.88758 -0.85799,0.88758 -0.48593,0 -0.88758,-0.40165 -0.88758,-0.88758 0,-0.48593 0.40165,-0.85799 0.88758,-0.85799 z m 57.81092,3.69824 c 0.48593,0 0.88758,0.37207 0.88758,0.858 0,0.48592 -0.40165,0.85799 -0.88758,0.85799 -0.48593,0 -0.85799,-0.37207 -0.85799,-0.85799 0,-0.48593 0.37206,-0.858 0.85799,-0.858 z m -35.88774,1.8935 c 0.48593,0 0.88758,0.37207 0.88758,0.858 0,0.48592 -0.40165,0.85799 -0.88758,0.85799 -0.48593,0 -0.88758,-0.37207 -0.88758,-0.85799 0,-0.48593 0.40165,-0.858 0.88758,-0.858 z m -14.14208,1.65682 c 0.88889,0 1.59764,0.67916 1.59764,1.56805 0,0.8889 -0.70875,1.59764 -1.59764,1.59764 -0.8889,0 -1.59764,-0.70874 -1.59764,-1.59764 0,-0.88889 0.70874,-1.56805 1.59764,-1.56805 z m 29.23091,0.88757 c 0.48593,0 0.88758,0.37207 0.88758,0.858 0,0.48593 -0.40165,0.88757 -0.88758,0.88757 -0.48594,0 -0.85799,-0.40164 -0.85799,-0.88757 0,-0.48593 0.37205,-0.858 0.85799,-0.858 z m -18.25453,1.21303 c 0.48593,0 0.88758,0.37206 0.88758,0.85799 0,0.48593 -0.40165,0.88758 -0.88758,0.88758 -0.48593,0 -0.85799,-0.40165 -0.85799,-0.88758 0,-0.48593 0.37206,-0.85799 0.85799,-0.85799 z m 8.90537,2.78108 c 0.48593,0 0.88758,0.37206 0.88758,0.85799 0,0.48593 -0.40165,0.85799 -0.88758,0.85799 -0.48593,0 -0.85799,-0.37206 -0.85799,-0.85799 0,-0.48593 0.37206,-0.85799 0.85799,-0.85799 z m 16.27227,1.24261 c -1.04536,0 -1.8935,0.84815 -1.8935,1.8935 0,1.04535 0.84814,1.92308 1.8935,1.92308 0.72325,0 1.36311,-0.43466 1.6864,-1.03551 l 18.90541,0 0,1.59765 -4.34913,0 c -0.31705,-0.61525 -0.97858,-1.03551 -1.71599,-1.03551 -1.04535,0 -1.8935,0.84815 -1.8935,1.8935 0,1.04535 0.84815,1.8935 1.8935,1.8935 0.7141,0 1.35942,-0.38783 1.6864,-0.97634 l 5.2663,0 0.88758,0 0,-0.88758 0,-3.37279 0,-0.88758 -0.88758,0 -19.79299,0 c -0.32329,-0.59607 -0.96315,-1.00592 -1.6864,-1.00592 z m 0,1.0355 c 0.48593,0 0.88758,0.37207 0.88758,0.858 0,0.48592 -0.40165,0.88757 -0.88758,0.88757 -0.48593,0 -0.85799,-0.40165 -0.85799,-0.88757 0,-0.48593 0.37206,-0.858 0.85799,-0.858 z m -9.52668,1.44971 c 0.8889,0 1.59765,0.67917 1.59765,1.56806 0,0.88889 -0.70875,1.59764 -1.59765,1.59764 -0.88889,0 -1.59764,-0.70875 -1.59764,-1.59764 0,-0.88889 0.70875,-1.56806 1.59764,-1.56806 z m 24.05337,1.89351 c 0.48593,0 0.88758,0.37206 0.88758,0.85799 0,0.48593 -0.40165,0.85799 -0.88758,0.85799 -0.48592,0 -0.85799,-0.37206 -0.85799,-0.85799 0,-0.48593 0.37207,-0.85799 0.85799,-0.85799 z"
       id="path3242-1" />
  </g>
  <g
     inkscape:groupmode="layer"
     id="layer2"
     inkscape:label="beaker"
     transform="translate(-138.51809,-470.56248)">
    <path
       inkscape:connector-curvature="0"
       style="fill:#3475ad;fill-opacity:1;fill-rule:evenodd;stroke:url(#linearGradient5562);stroke-width:1;stroke-linecap:butt;stroke-linejoin:miter;stroke-miterlimit:4;stroke-dasharray:none;stroke-opacity:1"
       d="m 440.63541,480.88202 a 6.3314995,11.807392 72.067307 0 0 -7.83529,4.85329 l -0.0242,0.008 0.005,0.0142 a 6.3314995,11.807392 72.067307 0 0 -1.42993,4.78389 6.3314995,11.807392 72.067307 0 0 3.95945,3.0324 l 7.72942,23.88416 c 0,0 -11.00977,53.42076 -7.45707,64.3987 3.55269,10.97793 16.89912,14.74398 40.07476,7.24384 23.17564,-7.50013 31.78507,-18.37156 28.23238,-29.3495 -3.5527,-10.97794 -43.77328,-47.81946 -43.77328,-47.81946 l -7.72727,-23.87748 a 6.3314995,11.807392 72.067307 0 0 1.42909,-4.78362 6.3314995,11.807392 72.067307 0 0 -3.95834,-3.03184 l -0.007,-0.0217 -0.0359,0.0116 a 6.3314995,11.807392 72.067307 0 0 -9.18146,0.6537 z"
       id="path4136-8" />
    <path
       style="fill:#3475ad;fill-opacity:1;fill-rule:evenodd;stroke:#ffffff;stroke-width:1;stroke-linecap:butt;stroke-linejoin:miter;stroke-miterlimit:4;stroke-dasharray:none;stroke-opacity:1"
       d="m 436.77379,490.41603 c 0,0 2.79271,-0.1703 6.70011,-1.43482 3.90741,-1.26452 5.7494,-3.23654 5.7494,-3.23654"
       id="path4156"
       inkscape:connector-curvature="0"
       sodipodi:nodetypes="csc" />
    <circle
       style="opacity:1;fill:#ffffff;fill-opacity:1;stroke:none;stroke-width:0.44871891;stroke-miterlimit:4;stroke-dasharray:none;stroke-opacity:1"
       id="path4166"
       cx="461.73956"
       cy="561.62634"
       r="2.0534594" />
    <circle
       style="opacity:1;fill:#ffffff;fill-opacity:1;stroke:none;stroke-width:0.44871891;stroke-miterlimit:4;stroke-dasharray:none;stroke-opacity:1"
       id="path4166-2"
       cx="454.89471"
       cy="556.15045"
       r="2.0534594" />
    <circle
       style="opacity:1;fill:#ffffff;fill-opacity:1;stroke:none;stroke-width:0.44871891;stroke-miterlimit:4;stroke-dasharray:none;stroke-opacity:1"
       id="path4166-3"
       cx="492.88367"
       cy="562.31079"
       r="2.0534594" />
    <circle
       style="opacity:1;fill:#ffffff;fill-opacity:1;stroke:none;stroke-width:0.44871891;stroke-miterlimit:4;stroke-dasharray:none;stroke-opacity:1"
       id="path4166-9"
       cx="446.33859"
       cy="571.89374"
       r="2.0534594" />
    <circle
       style="opacity:1;fill:#ffffff;fill-opacity:1;stroke:none;stroke-width:0.44871891;stroke-miterlimit:4;stroke-dasharray:none;stroke-opacity:1"
       id="path4166-97"
       cx="469.61115"
       cy="545.19861"
       r="2.0534594" />
    <circle
       style="opacity:1;fill:#ffffff;fill-opacity:1;stroke:none;stroke-width:0.44871891;stroke-miterlimit:4;stroke-dasharray:none;stroke-opacity:1"
       id="path4166-0"
       cx="482.27414"
       cy="556.8349"
       r="2.0534594" />
    <circle
       style="opacity:1;fill:#ffffff;fill-opacity:1;stroke:none;stroke-width:0.44871891;stroke-miterlimit:4;stroke-dasharray:none;stroke-opacity:1"
       id="path4166-39"
       cx="453.86792"
       cy="548.96332"
       r="2.0534594" />
    <circle
       style="opacity:1;fill:#ffffff;fill-opacity:1;stroke:none;stroke-width:0.44871891;stroke-miterlimit:4;stroke-dasharray:none;stroke-opacity:1"
       id="path4166-8"
       cx="465.50424"
       cy="554.09698"
       r="2.0534594" />
    <circle
       style="opacity:1;fill:#ffffff;fill-opacity:1;stroke:none;stroke-width:0.44871891;stroke-miterlimit:4;stroke-dasharray:none;stroke-opacity:1"
       id="path4166-6"
       cx="469.9534"
       cy="566.76001"
       r="2.0534594" />
    <circle
       style="opacity:1;fill:#ffffff;fill-opacity:1;stroke:none;stroke-width:0.44871891;stroke-miterlimit:4;stroke-dasharray:none;stroke-opacity:1"
       id="path4166-5"
       cx="461.05508"
       cy="575.3161"
       r="2.0534594" />
    <circle
       style="opacity:1;fill:#ffffff;fill-opacity:1;stroke:none;stroke-width:0.44871891;stroke-miterlimit:4;stroke-dasharray:none;stroke-opacity:1"
       id="path4166-7"
       cx="477.48279"
       cy="567.78674"
       r="2.0534594" />
    <ellipse
       style="opacity:1;fill:#ffffff;fill-opacity:1;stroke:none;stroke-width:0.77547336;stroke-miterlimit:4;stroke-dasharray:none;stroke-opacity:1"
       id="path4162"
       cx="464.34821"
       cy="542.28961"
       rx="23.272539"
       ry="3.2513108" />
  </g>
</svg>
